<?xml version="1.0" encoding="UTF-8"?>
<svg xmlns="http://www.w3.org/2000/svg" viewBox="0 0 942.27 987.95">
  <defs>
    <style>
      .cls-1 {
        fill: #d8c6a3;
      }

      .cls-1, .cls-2, .cls-3, .cls-4, .cls-5, .cls-6, .cls-7, .cls-8, .cls-9, .cls-10, .cls-11, .cls-12, .cls-13, .cls-14 {
        stroke-miterlimit: 10;
      }

      .cls-1, .cls-2, .cls-4, .cls-5, .cls-6, .cls-8 {
        stroke: #534741;
      }

      .cls-1, .cls-2, .cls-6 {
        stroke-width: 6.47px;
      }

      .cls-2 {
        fill: #aaa379;
      }

      .cls-15 {
        fill: #eaeaea;
      }

      .cls-16 {
        fill: #992e04;
      }

      .cls-17 {
        fill: #332823;
      }

      .cls-18 {
        fill: #a89a80;
      }

      .cls-19 {
        fill: #b2aaa8;
      }

      .cls-20 {
        fill: #d3b175;
      }

      .cls-21 {
        fill: #db3305;
      }

      .cls-22 {
        fill: #44392f;
      }

      .cls-23 {
        fill: #89825f;
      }

      .cls-24 {
        fill: #898071;
      }

      .cls-25 {
        fill: #827257;
      }

      .cls-26 {
        fill: #635e47;
      }

      .cls-27 {
        fill: #493b30;
      }

      .cls-28 {
        fill: #605245;
      }

      .cls-29 {
        fill: #777258;
      }

      .cls-30 {
        fill: #776d5f;
      }

      .cls-31 {
        fill: #4f4941;
      }

      .cls-32 {
        fill: #7c765b;
      }

      .cls-33 {
        fill: #261d19;
      }

      .cls-3 {
        fill: #e0d7b3;
        stroke: #7f5d3b;
      }

      .cls-3, .cls-7 {
        stroke-width: 20px;
      }

      .cls-4 {
        fill: #565241;
      }

      .cls-4, .cls-5, .cls-8 {
        stroke-width: 5.28px;
      }

      .cls-5 {
        fill: #9e917a;
      }

      .cls-6, .cls-7, .cls-8, .cls-9, .cls-10, .cls-11, .cls-12, .cls-13, .cls-14 {
        fill: none;
      }

      .cls-7 {
        stroke: #6d5c4e;
      }

      .cls-9 {
        stroke: #86007d;
      }

      .cls-9, .cls-10, .cls-11, .cls-12, .cls-13, .cls-14 {
        stroke-linecap: round;
        stroke-width: 10.34px;
      }

      .cls-10 {
        stroke: #008018;
      }

      .cls-11 {
        stroke: #0000f9;
      }

      .cls-12 {
        stroke: #ffff41;
      }

      .cls-13 {
        stroke: #ffa52c;
      }

      .cls-14 {
        stroke: #ff0018;
      }
    </style>
  </defs>
  <g id="base">
    <circle class="cls-3" cx="471.14" cy="515.63" r="461.14"/>
    <path class="cls-20" d="M63.13,730.71l868-246.49s8.79,293.75-218.82,425.7c-117.34,68.03-476.15,151.5-649.19-179.21Z"/>
    <circle class="cls-7" cx="471.14" cy="516.82" r="461.14"/>
  </g>
  <g id="neck">
    <path class="cls-4" d="M649.44,392.43H326.2c-13.53,0-25.93,4.85-35.56,12.89l-65.65,50.22,45.7,16.04v188.57c0,30.66,24.86,55.52,55.52,55.52h280.97l7.21,40.3,79.73-51.03c13.77-10.1,22.72-26.4,22.72-44.79v-212.21c0-30.66-36.72-55.52-67.39-55.52Z"/>
    <rect class="cls-5" x="201.41" y="445.44" width="434.28" height="323.24" rx="55.52" ry="55.52"/>
    <path class="cls-25" d="M202.25,726.85l431.58-.28s4.2-2.48,1.7-32.05c-2.5-29.56-434.28-10.96-434.28,8.55s1,23.78,1,23.78Z"/>
    <rect class="cls-8" x="201.41" y="445.44" width="434.28" height="323.24" rx="55.52" ry="55.52"/>
    <polygon class="cls-32" points="633.23 729.49 715.71 676.15 700.85 700.54 620.87 750.83 633.23 729.49"/>
    <path class="cls-8" d="M635.7,713.08c0,15.83-6.64,30.1-17.27,40.22l75.67-48.43c13.77-10.1,22.72-26.4,22.72-44.79"/>
  </g>
  <g id="bottom_floppys" data-name="bottom floppys">
    <path class="cls-26" d="M579.92,737.9h-3.2c-.73-2.31-2.86-4-5.41-4h-31.8c-2.55,0-4.69,1.69-5.41,4h-60.19c-3.15,0-5.7,2.55-5.7,5.7s2.55,5.7,5.7,5.7h60.19c.73,2.31,2.86,4,5.41,4h31.8c2.55,0,4.69-1.69,5.41-4h3.2c3.15,0,5.7-2.55,5.7-5.7s-2.55-5.7-5.7-5.7Z"/>
    <path class="cls-27" d="M585.29,745.45c.2-.58,.33-1.2,.33-1.85,0-3.15-2.55-5.7-5.7-5.7h-3.2c-.73-2.31-2.86-4-5.41-4h-31.8c-1.47,0-2.79,.57-3.8,1.49-.02,.05-.04,.1-.06,.15h-.11c-.66,.65-1.17,1.46-1.45,2.36h-60.19c-1.47,0-2.8,.57-3.81,1.49-.2,.58-.33,1.2-.33,1.85,0,3.15,2.55,5.7,5.7,5.7h60.19c.73,2.31,2.86,4,5.41,4h31.8c1.47,0,2.79-.57,3.8-1.49,.02-.05,.04-.1,.06-.15h.11c.66-.65,1.17-1.46,1.45-2.36h3.2c1.47,0,2.8-.57,3.81-1.49Z"/>
    <path class="cls-26" d="M450.11,736.72h-3.2c-.73-2.31-2.86-4-5.41-4h-31.8c-2.55,0-4.69,1.69-5.41,4h-60.19c-3.15,0-5.7,2.55-5.7,5.7s2.55,5.7,5.7,5.7h60.19c.73,2.31,2.86,4,5.41,4h31.8c2.55,0,4.69-1.69,5.41-4h3.2c3.15,0,5.7-2.55,5.7-5.7s-2.55-5.7-5.7-5.7Z"/>
    <path class="cls-27" d="M455.47,744.27c.2-.58,.33-1.2,.33-1.85,0-3.15-2.55-5.7-5.7-5.7h-3.2c-.73-2.31-2.86-4-5.41-4h-31.8c-1.47,0-2.79,.57-3.8,1.49-.02,.05-.04,.1-.06,.15h-.11c-.66,.65-1.17,1.46-1.45,2.36h-60.19c-1.47,0-2.8,.57-3.81,1.49-.2,.58-.33,1.2-.33,1.85,0,3.15,2.55,5.7,5.7,5.7h60.19c.73,2.31,2.86,4,5.41,4h31.8c1.47,0,2.79-.57,3.8-1.49,.02-.05,.04-.1,.06-.15h.11c.66-.65,1.17-1.46,1.45-2.36h3.2c1.47,0,2.8-.57,3.81-1.49Z"/>
  </g>
  <g id="ports">
    <circle class="cls-29" cx="254.95" cy="742.31" r="13.73"/>
    <path class="cls-27" d="M254.95,728.58c-2.69,0-5.17,.8-7.29,2.14-2.36,2.47-3.83,5.79-3.83,9.47,0,7.58,6.15,13.73,13.73,13.73,2.69,0,5.17-.8,7.29-2.14,2.36-2.47,3.83-5.79,3.83-9.47,0-7.58-6.15-13.73-13.73-13.73Z"/>
    <circle class="cls-29" cx="291.63" cy="742.32" r="13.73"/>
    <path class="cls-27" d="M291.63,728.58c-2.69,0-5.17,.8-7.29,2.14-2.36,2.47-3.83,5.79-3.83,9.47,0,7.58,6.15,13.73,13.73,13.73,2.69,0,5.17-.8,7.29-2.14,2.36-2.47,3.83-5.79,3.83-9.47,0-7.58-6.15-13.73-13.73-13.73Z"/>
    <path class="cls-26" d="M299.18,748.33c1.45-1.19,2.56-2.81,3.07-4.76,1.26-4.89-1.68-9.88-6.58-11.15-2.27-.59-4.55-.23-6.48,.77v-.02s-.18,.11-.18,.11c-.26,.14-.51,.31-.76,.48l-3.58,2.27,.67,.95c-.34,.63-.63,1.3-.82,2.02-1.26,4.89,1.68,9.88,6.58,11.15,1.23,.32,2.47,.37,3.65,.19l.46,.65,2.58-1.7c.34-.19,.65-.41,.96-.63l.45-.29v-.02Z"/>
    <circle class="cls-24" cx="289.87" cy="743.55" r="9.15"/>
    <path class="cls-26" d="M262.82,748.01c1.38-1.27,2.4-2.95,2.8-4.92,.99-4.96-2.22-9.78-7.17-10.77-2.3-.46-4.56,.01-6.43,1.12l-.02-.02-.16,.12c-.26,.16-.49,.34-.73,.52l-3.45,2.46,.72,.91c-.3,.65-.56,1.33-.71,2.07-.99,4.96,2.22,9.78,7.17,10.77,1.25,.25,2.48,.23,3.66-.01l.49,.62,2.48-1.84c.33-.2,.63-.44,.93-.69l.43-.32v-.02Z"/>
    <circle class="cls-24" cx="253.26" cy="743.75" r="9.15"/>
    <circle class="cls-30" cx="253.26" cy="743.75" r="7.31"/>
    <circle class="cls-30" cx="289.87" cy="743.55" r="7.31"/>
    <path class="cls-31" d="M254.69,736.68c-1.18-.24-2.35-.17-3.43,.14-1.29,1.04-2.24,2.51-2.59,4.26-.79,3.96,1.77,7.81,5.73,8.6,1.18,.24,2.35,.17,3.43-.14,1.29-1.04,2.24-2.51,2.59-4.26,.79-3.96-1.77-7.81-5.73-8.6Z"/>
    <path class="cls-31" d="M291.31,736.48c-1.18-.24-2.35-.17-3.43,.14-1.29,1.04-2.24,2.51-2.59,4.26-.79,3.96,1.77,7.81,5.73,8.6,1.18,.24,2.35,.17,3.43-.14,1.29-1.04,2.24-2.51,2.59-4.26,.79-3.96-1.77-7.81-5.73-8.6Z"/>
    <path class="cls-19" d="M253.24,742.29c.19-.25,.3-.56,.3-.9,0-.85-.69-1.54-1.54-1.54-.39,0-.75,.15-1.02,.4h0s-.02,.02-.02,.02c-.04,.03-.07,.07-.1,.11l-.49,.52,.15,.13c-.03,.12-.05,.24-.05,.36,0,.85,.69,1.54,1.54,1.54,.21,0,.42-.04,.6-.12l.1,.09,.35-.38s.09-.09,.13-.14l.06-.07h0Z"/>
    <circle class="cls-15" cx="251.53" cy="741.9" r="1.54"/>
    <path class="cls-19" d="M258.12,742.55c.19-.25,.3-.56,.3-.9,0-.85-.69-1.54-1.54-1.54-.39,0-.75,.15-1.02,.4h0s-.02,.02-.02,.02c-.04,.03-.07,.07-.1,.11l-.49,.52,.15,.13c-.03,.12-.05,.24-.05,.36,0,.85,.69,1.54,1.54,1.54,.21,0,.42-.04,.6-.12l.1,.09,.35-.38s.09-.09,.13-.14l.06-.07h0Z"/>
    <circle class="cls-15" cx="256.41" cy="742.16" r="1.54"/>
    <path class="cls-19" d="M255.58,746.14c.19-.25,.3-.56,.3-.9,0-.85-.69-1.54-1.54-1.54-.39,0-.75,.15-1.02,.4h0s-.02,.02-.02,.02c-.04,.03-.07,.07-.1,.11l-.49,.52,.15,.13c-.03,.12-.05,.24-.05,.36,0,.85,.69,1.54,1.54,1.54,.21,0,.42-.04,.6-.12l.1,.09,.35-.38s.09-.09,.13-.14l.06-.07h0Z"/>
    <circle class="cls-15" cx="253.87" cy="745.75" r="1.54"/>
    <path class="cls-19" d="M290.2,741.9c.19-.25,.3-.56,.3-.9,0-.85-.69-1.54-1.54-1.54-.39,0-.75,.15-1.02,.4h0s-.02,.02-.02,.02c-.04,.03-.07,.07-.1,.11l-.49,.52,.15,.13c-.03,.12-.05,.24-.05,.36,0,.85,.69,1.54,1.54,1.54,.21,0,.42-.04,.6-.12l.1,.09,.35-.38s.09-.09,.13-.14l.06-.07h0Z"/>
    <circle class="cls-15" cx="288.48" cy="741.52" r="1.54"/>
    <path class="cls-19" d="M295.08,742.16c.19-.25,.3-.56,.3-.9,0-.85-.69-1.54-1.54-1.54-.39,0-.75,.15-1.02,.4h0s-.02,.02-.02,.02c-.04,.03-.07,.07-.1,.11l-.49,.52,.15,.13c-.03,.12-.05,.24-.05,.36,0,.85,.69,1.54,1.54,1.54,.21,0,.42-.04,.6-.12l.1,.09,.35-.38s.09-.09,.13-.14l.06-.07h0Z"/>
    <circle class="cls-15" cx="293.36" cy="741.78" r="1.54"/>
    <path class="cls-19" d="M292.53,745.75c.19-.25,.3-.56,.3-.9,0-.85-.69-1.54-1.54-1.54-.39,0-.75,.15-1.02,.4h0s-.02,.02-.02,.02c-.04,.03-.07,.07-.1,.11l-.49,.52,.15,.13c-.03,.12-.05,.24-.05,.36,0,.85,.69,1.54,1.54,1.54,.21,0,.42-.04,.6-.12l.1,.09,.35-.38s.09-.09,.13-.14l.06-.07h0Z"/>
    <circle class="cls-15" cx="290.82" cy="745.36" r="1.54"/>
  </g>
  <g id="main">
    <path class="cls-2" d="M702.83,275.43H306.75c-16.58,0-29.26-.33-42.02,5.24l-72.99,39.71,46.99,25.06v231.06c0,37.57,30.46,68.03,68.03,68.03h344.28l8.84,49.38,83.15-54.97c16.88-12.38,27.84-32.35,27.84-54.88v-240.6c0-37.57-30.46-68.03-68.03-68.03Z"/>
    <rect class="cls-1" x="153.85" y="313.41" width="532.14" height="396.08" rx="68.03" ry="68.03"/>
    <path class="cls-18" d="M687.05,511.45L153.85,650.85s1.49,53.05,62.46,55.84c60.97,2.8,416.78,1.1,416.78,1.1,0,0,41.03-14.71,46.89-38.36,5.86-23.65,8.12-27.98,7.06-157.99Z"/>
    <rect class="cls-28" x="223.29" y="353.63" width="393.26" height="313.42" rx="68.03" ry="68.03"/>
    <path class="cls-22" d="M548.52,667.05H291.32c-26.15,0-48.85-14.75-60.24-36.39l37.6-36.49,347.87,4.85c0,37.57-30.46,68.03-68.03,68.03Z"/>
    <path class="cls-17" d="M265,421.65v150.26c0,37.57,30.46,68.03,68.03,68.03h243.51c11.29,0,21.93-2.77,31.3-7.63,5.54-9.84,8.71-21.2,8.71-33.3v-177.36c0-37.57-30.46-68.03-68.03-68.03h-215.49c-37.57,0-68.03,30.46-68.03,68.03Z"/>
    <path class="cls-33" d="M268.68,594.17c9.18,26.71,34.52,45.9,64.35,45.9h243.51c11.29,0,21.93-2.77,31.3-7.63,5.54-9.84,8.71-21.2,8.71-33.3v-99.69l-347.87,94.72Z"/>
    <line class="cls-14" x1="310.95" y1="400.55" x2="360.32" y2="400.55"/>
    <line class="cls-13" x1="310.95" y1="427.23" x2="399.42" y2="427.23"/>
    <line class="cls-12" x1="310.95" y1="453.92" x2="379.28" y2="453.92"/>
    <line class="cls-10" x1="310.95" y1="480.6" x2="343.31" y2="480.6"/>
    <path class="cls-23" d="M770.86,409.26l-84.41,101.96-.6,134.57-8.71,35.13s81.57-46.08,87.51-68.46,6.21-20.07,6.21-107.35v-95.86Z"/>
    <rect class="cls-6" x="153.85" y="313.41" width="532.14" height="396.08" rx="68.03" ry="68.03"/>
    <path class="cls-6" d="M702.83,275.43H306.75c-16.58,0-29.26-.33-42.02,5.24l-72.99,39.71,.06,.03c9.07-4.48,19.28-7.01,30.08-7.01h396.08c37.57,0,68.03,30.46,68.03,68.03v260.02c0,18.25-7.2,34.8-18.89,47.02l75.92-49.53c16.88-12.38,27.84-32.35,27.84-54.88v-240.6c0-37.57-30.46-68.03-68.03-68.03Z"/>
    <line class="cls-11" x1="311.3" y1="504.28" x2="389.82" y2="504.28"/>
    <line class="cls-9" x1="311.3" y1="530.96" x2="359.33" y2="530.96"/>
  </g>
  <g id="vents">
    <path class="cls-29" d="M305.22,666.65c-1.87,0-3.39,1.52-3.39,3.39v15.97c0,1.87,1.52,3.39,3.39,3.39s3.39-1.52,3.39-3.39v-15.97c0-1.87-1.52-3.39-3.39-3.39Z"/>
    <path class="cls-29" d="M315.88,666.65c-1.87,0-3.39,1.52-3.39,3.39v15.97c0,1.87,1.52,3.39,3.39,3.39s3.39-1.52,3.39-3.39v-15.97c0-1.87-1.52-3.39-3.39-3.39Z"/>
    <path class="cls-29" d="M327.25,666.65c-1.87,0-3.39,1.52-3.39,3.39v15.97c0,1.87,1.52,3.39,3.39,3.39s3.39-1.52,3.39-3.39v-15.97c0-1.87-1.52-3.39-3.39-3.39Z"/>
    <path class="cls-29" d="M337.91,666.65c-1.87,0-3.39,1.52-3.39,3.39v15.97c0,1.87,1.52,3.39,3.39,3.39s3.39-1.52,3.39-3.39v-15.97c0-1.87-1.52-3.39-3.39-3.39Z"/>
    <path class="cls-28" d="M305.22,666.65c-.45,0-.87,.09-1.26,.25-.48,.58-.78,1.32-.78,2.14v15.97c0,1.87,1.52,3.39,3.39,3.39,.45,0,.87-.09,1.26-.25,.48-.58,.78-1.32,.78-2.14v-15.97c0-1.87-1.52-3.39-3.39-3.39Z"/>
    <path class="cls-28" d="M315.88,666.65c-.45,0-.87,.09-1.26,.25-.48,.58-.78,1.32-.78,2.14v15.97c0,1.87,1.52,3.39,3.39,3.39,.45,0,.87-.09,1.26-.25,.48-.58,.78-1.32,.78-2.14v-15.97c0-1.87-1.52-3.39-3.39-3.39Z"/>
    <path class="cls-28" d="M327.25,666.65c-.45,0-.87,.09-1.26,.25-.48,.58-.78,1.32-.78,2.14v15.97c0,1.87,1.52,3.39,3.39,3.39,.45,0,.87-.09,1.26-.25,.48-.58,.78-1.32,.78-2.14v-15.97c0-1.87-1.52-3.39-3.39-3.39Z"/>
    <path class="cls-28" d="M337.91,666.65c-.45,0-.87,.09-1.26,.25-.48,.58-.78,1.32-.78,2.14v15.97c0,1.87,1.52,3.39,3.39,3.39,.45,0,.87-.09,1.26-.25,.48-.58,.78-1.32,.78-2.14v-15.97c0-1.87-1.52-3.39-3.39-3.39Z"/>
  </g>
  <g id="floppy">
    <path class="cls-29" d="M569.94,680.88h-3.2c-.73-2.31-2.86-4-5.41-4h-31.8c-2.55,0-4.69,1.69-5.41,4h-60.19c-3.15,0-5.7,2.55-5.7,5.7s2.55,5.7,5.7,5.7h60.19c.73,2.31,2.86,4,5.41,4h31.8c2.55,0,4.69-1.69,5.41-4h3.2c3.15,0,5.7-2.55,5.7-5.7s-2.55-5.7-5.7-5.7Z"/>
    <path class="cls-28" d="M575.3,688.42c.2-.58,.33-1.2,.33-1.85,0-3.15-2.55-5.7-5.7-5.7h-3.2c-.73-2.31-2.86-4-5.41-4h-31.8c-1.47,0-2.79,.57-3.8,1.49-.02,.05-.04,.1-.06,.15h-.11c-.66,.65-1.17,1.46-1.45,2.36h-60.19c-1.47,0-2.8,.57-3.81,1.49-.2,.58-.33,1.2-.33,1.85,0,3.15,2.55,5.7,5.7,5.7h60.19c.73,2.31,2.86,4,5.41,4h31.8c1.47,0,2.79-.57,3.8-1.49,.02-.05,.04-.1,.06-.15h.11c.66-.65,1.17-1.46,1.45-2.36h3.2c1.47,0,2.8-.57,3.81-1.49Z"/>
  </g>
  <g id="floppy_button" data-name="floppy button">
    <circle class="cls-29" cx="586.7" cy="686.58" r="7"/>
    <path class="cls-28" d="M586.7,679.57c-1.37,0-2.64,.41-3.72,1.09-1.2,1.26-1.95,2.95-1.95,4.83,0,3.87,3.14,7,7,7,1.37,0,2.64-.41,3.72-1.09,1.2-1.26,1.95-2.95,1.95-4.83,0-3.87-3.14-7-7-7Z"/>
    <path class="cls-16" d="M591.35,688.61c.58-.8,.94-1.78,.94-2.84,0-2.67-2.17-4.84-4.84-4.84-1.24,0-2.36,.48-3.22,1.25h0s-.07,.07-.07,.07c-.12,.11-.22,.23-.33,.35l-1.53,1.63,.47,.4c-.09,.37-.15,.75-.15,1.14,0,2.67,2.17,4.84,4.84,4.84,.67,0,1.31-.14,1.89-.39l.32,.27,1.09-1.21c.15-.14,.28-.29,.41-.45l.19-.21h0Z"/>
    <circle class="cls-21" cx="585.95" cy="687.39" r="4.84"/>
  </g>
</svg>